<svg xmlns="http://www.w3.org/2000/svg" width="800" height="960" viewBox="0 0 800 960"><defs><linearGradient id="oedma" x1="717.68" x2="164.9" y1="134.6" y2="841.57" gradientUnits="userSpaceOnUse"><stop offset="0" stop-color="#008348"/><stop offset="1" stop-color="#a5ccb7"/></linearGradient><linearGradient id="oedmb" x1="0" x2="800" y1="960" y2="0" gradientUnits="userSpaceOnUse"><stop offset="0" stop-color="#5c6ccd"/><stop offset="1" stop-color="#5753b5"/></linearGradient><linearGradient id="oedmd" x1="789.46" x2="789.46" y1="286.68" y2="831.66" gradientUnits="userSpaceOnUse"><stop offset="0" stop-color="#a7a7ff"/><stop offset="1" stop-color="#fff" stop-opacity="0"/></linearGradient><clipPath id="oedme"><path fill="#fff" d="M512.368 533.892c0-6.77 5.489-12.26 12.26-12.26 6.77 0 12.259 5.49 12.259 12.26s-5.49 12.26-12.26 12.26-12.259-5.49-12.259-12.26z"/></clipPath><clipPath id="oedmf"><path fill="#fff" d="M157.879 669.618c0-6.77 5.488-12.26 12.259-12.26 6.77 0 12.26 5.49 12.26 12.26s-5.49 12.26-12.26 12.26-12.26-5.49-12.26-12.26z"/></clipPath><linearGradient id="oedmg" x1="662.46" x2="662.46" y1="519.68" y2="1064.66" gradientUnits="userSpaceOnUse"><stop offset="0" stop-color="#a7a7ff"/><stop offset="1" stop-color="#fff" stop-opacity="0"/></linearGradient><clipPath id="oedmh"><path fill="#fff" d="M385.368 766.892c0-6.77 5.489-12.26 12.26-12.26 6.77 0 12.259 5.49 12.259 12.26s-5.49 12.26-12.26 12.26-12.259-5.49-12.259-12.26z"/></clipPath><linearGradient id="oedmi" x1="635.06" x2="635.06" y1="306.43" y2="720.97" gradientUnits="userSpaceOnUse"><stop offset="0" stop-color="#54d8ff"/><stop offset="1" stop-color="#fff" stop-opacity="0"/></linearGradient><clipPath id="oedmj"><path fill="#fff" d="M1396.001 370.204c0-6.77 5.49-12.259 12.26-12.259s12.259 5.489 12.259 12.26c0 6.77-5.489 12.258-12.26 12.258-6.77 0-12.259-5.488-12.259-12.259z"/></clipPath><clipPath id="oedmk"><path fill="#fff" d="M436.841 369.378c0-6.77 5.489-12.26 12.26-12.26 6.77 0 12.259 5.49 12.259 12.26s-5.489 12.259-12.26 12.259c-6.77 0-12.259-5.489-12.259-12.26z"/></clipPath><linearGradient id="oedml" x1="331.34" x2="331.34" y1="416.77" y2="831.31" gradientUnits="userSpaceOnUse"><stop offset="0" stop-color="#54d8ff"/><stop offset="1" stop-color="#fff" stop-opacity="0"/></linearGradient><clipPath id="oedmm"><path fill="#fff" d="M679.987 611.358c0-6.77 5.489-12.26 12.26-12.26 6.77 0 12.259 5.49 12.259 12.26s-5.489 12.26-12.26 12.26c-6.77 0-12.259-5.49-12.259-12.26z"/></clipPath><clipPath id="oedmn"><path fill="#fff" d="M51.78 492.814c0-6.77 5.49-12.26 12.26-12.26s12.26 5.49 12.26 12.26-5.49 12.259-12.26 12.259-12.26-5.489-12.26-12.26z"/></clipPath><clipPath id="oedmc"><path d="M0 960V0h800v960z"/></clipPath></defs><g><g><g><path fill="url(#oedma)" d="M0 960V0h800v960z"/></g><g><g><path fill="url(#oedmb)" d="M0 960V0h800v960z"/></g><g clip-path="url(#oedmc)" opacity=".2"><g opacity=".14"><path fill="url(#oedmd)" d="M-548.252 750.278v-218.17s308.504 143.1 555 152.088c266.54-8.71 312.693-69.952 520.308-152.089 177.416-68.461 354.346-87.25 524.168-82.413 169.821 4.837 317.012 78.793 517.611 86.372 353.88-30.534 534.43-184.91 558.339-249.388v544.74l-2675.426.242z"/></g><g opacity=".2"><path fill="none" stroke="#a3a0fb" stroke-miterlimit="50" stroke-width="2" d="M-545.797 532.678v0S-239.284 679.191 3.066 682.345c242.351 3.155 335.438-75.606 521.062-149.472 185.626-73.866 362.09-86.473 524.554-83.99 162.463 2.484 320.4 79.89 520.02 83.998 199.617 4.109 522.56-133.802 558.472-248.747"/></g><g opacity=".2"><path fill="#fff" d="M512.368 533.892c0-6.77 5.489-12.26 12.26-12.26 6.77 0 12.259 5.49 12.259 12.26s-5.49 12.26-12.26 12.26-12.259-5.49-12.259-12.26z"/><path fill="none" stroke="#a4a1fb" stroke-miterlimit="50" stroke-width="4" d="M512.368 533.892c0-6.77 5.489-12.26 12.26-12.26 6.77 0 12.259 5.49 12.259 12.26s-5.49 12.26-12.26 12.26-12.259-5.49-12.259-12.26z" clip-path="url(&quot;#oedme&quot;)"/></g><g opacity=".2"><path fill="#fff" d="M157.879 669.618c0-6.77 5.488-12.26 12.259-12.26 6.77 0 12.26 5.49 12.26 12.26s-5.49 12.26-12.26 12.26-12.26-5.49-12.26-12.26z"/><path fill="none" stroke="#a4a1fb" stroke-miterlimit="50" stroke-width="4" d="M157.879 669.618c0-6.77 5.488-12.26 12.259-12.26 6.77 0 12.26 5.49 12.26 12.26s-5.49 12.26-12.26 12.26-12.26-5.49-12.26-12.26z" clip-path="url(&quot;#oedmf&quot;)"/></g></g><g clip-path="url(#oedmc)" opacity=".2"><g opacity=".14"><path fill="url(#oedmg)" d="M-675.252 983.278v-218.17s308.504 143.1 555 152.088c266.54-8.71 312.693-69.952 520.308-152.089 177.416-68.461 354.346-87.25 524.168-82.413 169.821 4.837 317.012 78.793 517.611 86.372 353.88-30.534 534.43-184.91 558.339-249.388v544.74l-2675.426.242z"/></g><g opacity=".2"><path fill="none" stroke="#a3a0fb" stroke-miterlimit="50" stroke-width="2" d="M-672.797 765.678v0s306.513 146.513 548.863 149.667c242.351 3.155 335.438-75.606 521.062-149.472 185.626-73.866 362.09-86.473 524.554-83.99 162.463 2.484 320.4 79.89 520.02 83.998 199.617 4.109 522.56-133.802 558.472-248.747"/></g><g opacity=".2"><path fill="#fff" d="M385.368 766.892c0-6.77 5.489-12.26 12.26-12.26 6.77 0 12.259 5.49 12.259 12.26s-5.49 12.26-12.26 12.26-12.259-5.49-12.259-12.26z"/><path fill="none" stroke="#a4a1fb" stroke-miterlimit="50" stroke-width="4" d="M385.368 766.892c0-6.77 5.489-12.26 12.26-12.26 6.77 0 12.259 5.49 12.259 12.26s-5.49 12.26-12.26 12.26-12.259-5.49-12.259-12.26z" clip-path="url(&quot;#oedmh&quot;)"/></g></g><g clip-path="url(#oedmc)" opacity=".2"><g opacity=".14"><path fill="url(#oedmi)" d="M-702.641 639.59V306.435s301.107 331.226 548.452 343.69c275.977-2.806 278.239-171.951 520.75-264.547 203.025-72.706 357.943 125.622 527.764 130.46 169.821 4.837 287.023-135.926 518.71-145.706 300.18 14.727 541.051 202.792 559.742 212.904V720.73l-2675.418.242z"/></g><g opacity=".2"><path fill="none" stroke="#54d8ff" stroke-miterlimit="50" stroke-width="2" d="M-704.3 309.257v0s310.479 337.33 553.13 340.484c242.652 3.154 325.629-198.754 520.459-266.824 194.83-68.07 363.846 129.84 526.51 132.324 162.666 2.483 318.406-148.686 518.272-144.578 199.866 4.109 428.376 118.46 554.706 208.664"/></g><g opacity=".2"><path fill="#fff" d="M1396.001 370.204c0-6.77 5.49-12.259 12.26-12.259s12.259 5.489 12.259 12.26c0 6.77-5.489 12.258-12.26 12.258-6.77 0-12.259-5.488-12.259-12.259z"/><path fill="none" stroke="#55d8fe" stroke-miterlimit="50" stroke-width="4" d="M1396.001 370.204c0-6.77 5.49-12.259 12.26-12.259s12.259 5.489 12.259 12.26c0 6.77-5.489 12.258-12.26 12.258-6.77 0-12.259-5.488-12.259-12.259z" clip-path="url(&quot;#oedmj&quot;)"/></g><g opacity=".2"><path fill="#fff" d="M436.841 369.378c0-6.77 5.489-12.26 12.26-12.26 6.77 0 12.259 5.49 12.259 12.26s-5.489 12.259-12.26 12.259c-6.77 0-12.259-5.489-12.259-12.26z"/><path fill="none" stroke="#55d8fe" stroke-miterlimit="50" stroke-width="4" d="M436.841 369.378c0-6.77 5.489-12.26 12.26-12.26 6.77 0 12.259 5.49 12.259 12.26s-5.489 12.259-12.26 12.259c-6.77 0-12.259-5.489-12.259-12.26z" clip-path="url(&quot;#oedmk&quot;)"/></g></g><g clip-path="url(#oedmc)" opacity=".2"><g opacity=".14"><path fill="url(#oedml)" d="M-1006.365 749.927V416.772s301.107 331.226 548.452 343.69c275.977-2.807 278.24-171.951 520.751-264.547 203.024-72.706 357.942 125.622 527.763 130.46 169.821 4.837 287.023-135.926 518.71-145.706 300.18 14.727 541.051 202.792 559.742 212.904v137.494l-2675.418.242z"/></g><g opacity=".2"><path fill="none" stroke="#54d8ff" stroke-miterlimit="50" stroke-width="2" d="M-1007.023 419.594v0s310.478 337.33 553.13 340.484c242.65 3.154 325.628-198.754 520.458-266.824 194.83-68.07 363.846 129.84 526.51 132.323C755.742 628.061 911.482 476.892 1111.348 481c199.866 4.109 428.376 118.46 554.706 208.664"/></g><g opacity=".2"><path fill="#fff" d="M679.987 611.358c0-6.77 5.489-12.26 12.26-12.26 6.77 0 12.259 5.49 12.259 12.26s-5.489 12.26-12.26 12.26c-6.77 0-12.259-5.49-12.259-12.26z"/><path fill="none" stroke="#55d8fe" stroke-miterlimit="50" stroke-width="4" d="M679.987 611.358c0-6.77 5.489-12.26 12.26-12.26 6.77 0 12.259 5.49 12.259 12.26s-5.489 12.26-12.26 12.26c-6.77 0-12.259-5.49-12.259-12.26z" clip-path="url(&quot;#oedmm&quot;)"/></g><g opacity=".2"><path fill="#fff" d="M51.78 492.814c0-6.77 5.49-12.26 12.26-12.26s12.26 5.49 12.26 12.26-5.49 12.259-12.26 12.259-12.26-5.489-12.26-12.26z"/><path fill="none" stroke="#55d8fe" stroke-miterlimit="50" stroke-width="4" d="M51.78 492.814c0-6.77 5.49-12.26 12.26-12.26s12.26 5.49 12.26 12.26-5.49 12.259-12.26 12.259-12.26-5.489-12.26-12.26z" clip-path="url(&quot;#oedmn&quot;)"/></g></g></g></g></g></svg>